<svg xmlns="http://www.w3.org/2000/svg" xmlns:xlink="http://www.w3.org/1999/xlink" width="500" zoomAndPan="magnify" viewBox="0 0 375 374.999991" height="500" preserveAspectRatio="xMidYMid meet" version="1.0"><defs><clipPath id="5e37ef7f54"><path d="M 13.738281 166 L 106 166 L 106 252 L 13.738281 252 Z M 13.738281 166 " clip-rule="nonzero"/></clipPath><clipPath id="3e6b4fe7ce"><path d="M 66 107.082031 L 200 107.082031 L 200 180 L 66 180 Z M 66 107.082031 " clip-rule="nonzero"/></clipPath><clipPath id="b9c9681bf8"><path d="M 102 232 L 207.988281 232 L 207.988281 267.582031 L 102 267.582031 Z M 102 232 " clip-rule="nonzero"/></clipPath><clipPath id="0f14ca3957"><path d="M 261.648438 215.441406 L 367.261719 215.441406 L 367.261719 262.667969 L 261.648438 262.667969 Z M 261.648438 215.441406 " clip-rule="nonzero"/></clipPath><clipPath id="220826acbc"><path d="M 200.726562 166 L 266 166 L 266 267.917969 L 200.726562 267.917969 Z M 200.726562 166 " clip-rule="nonzero"/></clipPath><clipPath id="22992e4113"><path d="M 216 117.917969 L 312.476562 117.917969 L 312.476562 195 L 216 195 Z M 216 117.917969 " clip-rule="nonzero"/></clipPath></defs><g clip-path="url(#5e37ef7f54)"><path fill="#f8d40e" d="M 102.140625 250.625 C 99.378906 248.527344 96.667969 246.300781 94.488281 243.554688 C 92.261719 240.824219 90.433594 237.804688 88.996094 234.660156 C 88.496094 233.546875 88.046875 232.425781 87.613281 231.296875 C 87.609375 231.285156 87.597656 231.28125 87.585938 231.28125 C 76.789062 230.988281 62.109375 224.757812 60.371094 224.003906 C 60.339844 223.992188 60.359375 223.945312 60.394531 223.949219 C 66.769531 224.539062 68.375 220.910156 68.511719 220.570312 C 68.519531 220.554688 68.507812 220.542969 68.492188 220.535156 C 52.042969 215.863281 42.648438 196.972656 42.648438 196.972656 C 36.933594 186.355469 27.414062 180.078125 13.789062 178.007812 C 13.765625 178.003906 13.753906 177.972656 13.769531 177.953125 C 25.765625 163.125 46.382812 171.570312 47.332031 171.96875 C 47.351562 171.976562 47.367188 171.964844 47.367188 171.941406 C 47.382812 170 43.484375 166.996094 42.894531 166.550781 C 42.871094 166.535156 42.886719 166.5 42.914062 166.5 C 70.707031 167.179688 89.046875 191.195312 89.550781 192.070312 C 89.554688 192.082031 89.566406 192.078125 89.578125 192.074219 C 92.617188 189.753906 91.582031 184.425781 91.3125 183.253906 C 91.304688 183.222656 91.355469 183.207031 91.375 183.238281 C 108.792969 214.863281 94.292969 226.019531 92.558594 227.613281 C 92.539062 227.632812 92.523438 227.621094 92.519531 227.597656 C 86.039062 196.363281 57.121094 186.570312 53.632812 185.496094 C 53.59375 185.488281 53.574219 185.535156 53.605469 185.550781 C 56.917969 187.214844 61.644531 190.976562 64.921875 193.742188 C 67.035156 195.421875 69.070312 197.199219 71.03125 199.042969 C 73.472656 201.375 75.792969 203.828125 78.003906 206.390625 C 80.21875 209 82.070312 211.90625 83.648438 214.9375 C 86.785156 221.027344 88.652344 227.582031 91.628906 233.386719 C 93.128906 236.28125 94.9375 238.953125 97.070312 241.324219 C 99.171875 243.734375 101.773438 245.644531 104.402344 247.457031 L 104.515625 247.535156 C 104.539062 247.550781 104.558594 247.566406 104.582031 247.582031 C 105.53125 248.300781 105.636719 249.71875 104.726562 250.570312 C 104.019531 251.230469 102.910156 251.210938 102.140625 250.625 " fill-opacity="1" fill-rule="nonzero"/></g><g clip-path="url(#3e6b4fe7ce)"><path fill="#f8d40e" d="M 199.027344 145.53125 C 198.523438 143.777344 198.273438 142.46875 198.273438 141.609375 C 198.273438 141.105469 198.34375 139.632812 198.488281 137.195312 C 198.636719 134.757812 198.707031 132.035156 198.707031 129.023438 C 198.707031 127.082031 196.25 124.253906 191.339844 120.523438 C 186.429688 116.792969 179.71875 113.621094 171.21875 111 C 162.726562 108.386719 153.453125 107.078125 143.410156 107.078125 C 127.710938 107.078125 113.902344 110.515625 102 117.402344 C 90.09375 124.289062 80.914062 133.878906 74.460938 146.179688 C 70.949219 152.867188 68.398438 159.816406 66.796875 167.023438 C 74.507812 170.714844 80.785156 175.558594 85.375 179.796875 L 88.039062 178.785156 C 89.128906 161.800781 93.980469 147.679688 102.601562 136.421875 C 112.472656 123.53125 126.277344 117.085938 144.015625 117.085938 C 157.792969 117.085938 168.527344 120.425781 176.207031 127.113281 C 180.585938 130.929688 184.679688 137.039062 188.488281 145.453125 C 190.28125 149.414062 191.644531 151.824219 192.574219 152.679688 C 193.507812 153.550781 194.4375 153.976562 195.375 153.976562 C 198.308594 153.976562 199.78125 152.796875 199.78125 150.429688 C 199.78125 148.921875 199.53125 147.296875 199.027344 145.53125 " fill-opacity="1" fill-rule="nonzero"/></g><g clip-path="url(#b9c9681bf8)"><path fill="#f8d40e" d="M 206.546875 233.742188 C 205.746094 232.917969 204.808594 232.507812 203.710938 232.507812 C 202.554688 232.507812 200.882812 233.480469 198.707031 235.425781 C 188.949219 244.425781 179.070312 250.496094 169.074219 253.628906 C 159.066406 256.761719 151.730469 258.324219 147.070312 258.324219 C 133.417969 258.324219 121.878906 254.679688 112.449219 247.382812 C 111.652344 246.765625 110.550781 247.410156 110.648438 248.410156 C 110.652344 248.425781 110.652344 248.441406 110.65625 248.453125 C 110.847656 250.480469 110.171875 252.507812 108.808594 254.019531 C 107.398438 255.578125 105.425781 256.371094 103.417969 256.371094 C 102.9375 256.371094 102.746094 256.699219 103.128906 256.925781 C 115.496094 264.246094 130.078125 267.898438 146.855469 267.898438 C 157.253906 267.898438 167.117188 265.945312 176.4375 262.035156 C 185.757812 258.125 193.308594 253.429688 199.085938 247.941406 C 204.855469 242.457031 207.742188 238.460938 207.742188 235.953125 C 207.742188 235.308594 207.34375 234.566406 206.546875 233.742188 " fill-opacity="1" fill-rule="nonzero"/></g><path fill="#f8d40e" d="M 149.214844 187.445312 C 149.210938 187.457031 149.210938 187.460938 149.207031 187.472656 C 141.769531 188.503906 136.539062 191.855469 133.351562 197.597656 C 133.351562 197.597656 128.101562 207.816406 119.105469 210.25 C 119.101562 210.253906 119.09375 210.257812 119.097656 210.273438 C 119.171875 210.460938 120.023438 212.441406 123.496094 212.164062 C 123.515625 212.167969 123.523438 212.1875 123.503906 212.199219 C 122.746094 212.515625 117.527344 214.65625 112.464844 215.5625 L 112.457031 215.5625 C 111.390625 215.757812 110.328125 215.890625 109.320312 215.941406 C 109.304688 215.941406 109.285156 215.945312 109.269531 215.945312 C 108.492188 215.933594 107.75 215.851562 107.082031 215.742188 C 108.390625 212.953125 109.394531 209.929688 110.894531 207.09375 C 111.777344 205.453125 112.800781 203.886719 114.03125 202.480469 C 115.25 201.097656 116.53125 199.78125 117.875 198.527344 C 118.960938 197.535156 120.082031 196.582031 121.242188 195.679688 C 123.046875 194.195312 125.648438 192.183594 127.464844 191.304688 C 127.484375 191.292969 127.46875 191.265625 127.449219 191.269531 C 125.535156 191.835938 109.71875 196.960938 105.972656 213.925781 C 105.960938 213.933594 105.964844 213.933594 105.953125 213.933594 C 105.019531 213.054688 97.195312 206.878906 106.90625 189.773438 C 106.917969 189.753906 106.945312 189.765625 106.941406 189.785156 C 106.785156 190.425781 106.1875 193.3125 107.824219 194.601562 C 107.832031 194.601562 107.832031 194.601562 107.839844 194.601562 C 108.089844 194.15625 118.257812 181.175781 133.417969 180.996094 C 133.4375 181 133.445312 181.019531 133.429688 181.03125 C 133.109375 181.265625 130.96875 182.871094 130.957031 183.925781 C 130.957031 183.941406 130.96875 183.945312 130.980469 183.941406 C 131.527344 183.71875 142.792969 179.292969 149.214844 187.445312 " fill-opacity="1" fill-rule="nonzero"/><g clip-path="url(#0f14ca3957)"><path fill="#ffffff" d="M 261.648438 215.441406 L 367.175781 215.441406 L 367.175781 262.667969 L 261.648438 262.667969 Z M 261.648438 215.441406 " fill-opacity="1" fill-rule="nonzero"/></g><g clip-path="url(#220826acbc)"><path fill="#7fc12e" d="M 247.445312 266.578125 C 245.921875 263.675781 244.492188 260.679688 243.730469 257.457031 C 242.910156 254.21875 242.558594 250.886719 242.585938 247.613281 C 242.605469 246.453125 242.667969 245.308594 242.75 244.167969 C 242.75 244.160156 242.742188 244.148438 242.734375 244.140625 C 233.582031 239.554688 223.484375 228.3125 222.289062 226.960938 C 222.269531 226.9375 222.300781 226.90625 222.332031 226.921875 C 227.558594 229.984375 230.394531 227.53125 230.65625 227.285156 C 230.667969 227.273438 230.667969 227.257812 230.652344 227.246094 C 218.40625 216.621094 217.929688 196.628906 217.929688 196.628906 C 217.292969 185.21875 211.640625 176.003906 200.773438 168.75 C 200.75 168.734375 200.753906 168.707031 200.773438 168.695312 C 217.011719 160.796875 231.308594 176.277344 231.996094 177.039062 C 232.011719 177.054688 232.03125 177.050781 232.042969 177.03125 C 232.832031 175.367188 230.695312 171.234375 230.363281 170.609375 C 230.351562 170.585938 230.378906 170.558594 230.40625 170.574219 C 253.953125 182.304688 260.074219 210.214844 260.171875 211.257812 C 260.171875 211.277344 260.1875 211.277344 260.199219 211.277344 C 263.734375 210.503906 264.988281 205.523438 265.226562 204.40625 C 265.234375 204.371094 265.285156 204.382812 265.289062 204.417969 C 267.535156 238.546875 250.625 242.316406 248.476562 242.992188 C 248.453125 243 248.445312 242.984375 248.449219 242.957031 C 255.429688 213.542969 234.546875 193.523438 231.972656 191.191406 C 231.945312 191.167969 231.90625 191.199219 231.929688 191.230469 C 234.105469 193.984375 236.652344 199.113281 238.355469 202.804688 C 239.496094 205.09375 240.527344 207.441406 241.472656 209.8125 C 242.628906 212.792969 243.636719 215.832031 244.503906 218.921875 C 245.359375 222.054688 245.78125 225.292969 245.917969 228.527344 C 246.164062 235.019531 245.136719 241.394531 245.359375 247.574219 C 245.480469 250.664062 245.960938 253.683594 246.839844 256.578125 C 247.675781 259.492188 249.140625 262.175781 250.671875 264.789062 L 250.738281 264.902344 C 250.753906 264.921875 250.765625 264.945312 250.777344 264.96875 C 251.277344 265.917969 250.867188 267.109375 249.855469 267.535156 C 248.949219 267.914062 247.902344 267.445312 247.445312 266.578125 " fill-opacity="1" fill-rule="nonzero"/></g><g clip-path="url(#22992e4113)"><path fill="#7fc12e" d="M 255.710938 129.246094 C 257.273438 127.867188 260.585938 127.179688 265.636719 127.179688 L 294.863281 127.179688 C 296.285156 127.179688 297.585938 127.671875 298.757812 128.65625 C 299.933594 129.648438 301.101562 131.78125 302.273438 135.054688 C 303.449219 138.328125 304.40625 140.339844 305.152344 141.078125 C 305.894531 141.820312 306.699219 142.1875 307.546875 142.1875 C 311.023438 142.1875 312.769531 140.058594 312.769531 135.800781 C 312.769531 134.449219 312.570312 132.699219 312.175781 130.535156 C 311.789062 128.367188 311.417969 126.097656 311.066406 123.71875 C 310.707031 121.34375 310.207031 119.78125 309.574219 119.035156 C 308.933594 118.289062 307.234375 117.917969 304.460938 117.917969 L 222.496094 117.917969 C 220.648438 117.917969 219.121094 118.382812 217.917969 119.316406 C 216.707031 120.253906 216.113281 121.363281 216.113281 122.65625 C 216.113281 124.019531 216.800781 125.148438 218.1875 126.046875 C 219.570312 126.949219 221.539062 127.390625 224.09375 127.390625 C 227.855469 127.390625 230.445312 127.867188 231.863281 128.824219 C 233.285156 129.78125 234.21875 132.117188 234.683594 135.835938 C 235.140625 139.550781 235.375 146.328125 235.375 156.175781 L 235.375 167.257812 C 243.722656 172.019531 249.875 178.574219 254.347656 185.15625 C 254.578125 183.832031 255.136719 182.777344 256.027344 182 C 257.238281 180.9375 259.621094 180.402344 263.179688 180.402344 L 291.453125 180.402344 C 297.570312 180.402344 300.628906 182.960938 300.628906 188.066406 C 300.628906 190.199219 301.070312 191.886719 301.957031 193.121094 C 302.84375 194.367188 303.929688 194.988281 305.207031 194.988281 C 306.410156 194.988281 307.421875 194.507812 308.238281 193.554688 C 309.054688 192.605469 309.460938 191.34375 309.460938 189.785156 C 309.460938 189.148438 309.285156 187.34375 308.933594 184.375 C 308.574219 181.402344 308.398438 178.574219 308.398438 175.882812 C 308.398438 174.113281 308.503906 171.828125 308.722656 169.039062 C 308.933594 166.238281 309.039062 164.101562 309.039062 162.609375 C 309.039062 161.054688 308.609375 159.839844 307.757812 158.953125 C 306.910156 158.066406 305.882812 157.625 304.671875 157.625 C 303.539062 157.625 302.582031 157.980469 301.804688 158.683594 C 301.015625 159.394531 300.628906 160.359375 300.628906 161.5625 C 300.628906 164.046875 300.023438 166.230469 298.8125 168.109375 C 297.605469 169.988281 295.859375 170.929688 293.589844 170.929688 L 265.207031 170.929688 C 260.015625 170.929688 256.746094 169.9375 255.386719 167.953125 C 254.039062 165.96875 253.363281 162.609375 253.363281 157.871094 L 253.363281 135.464844 C 253.363281 132.699219 254.152344 130.632812 255.710938 129.246094 " fill-opacity="1" fill-rule="nonzero"/></g><path fill="#7fc12e" d="M 295.292969 237.550781 C 295.300781 237.558594 295.292969 237.574219 295.28125 237.578125 C 288.5625 238.742188 283.910156 241.945312 281.191406 247.257812 C 281.191406 247.257812 276.738281 256.699219 268.644531 259.179688 C 268.636719 259.1875 268.628906 259.191406 268.632812 259.203125 C 268.707031 259.375 269.542969 261.144531 272.691406 260.789062 C 272.707031 260.792969 272.714844 260.808594 272.695312 260.816406 C 272.015625 261.128906 267.34375 263.234375 262.773438 264.210938 L 262.765625 264.210938 C 261.804688 264.417969 260.847656 264.574219 259.9375 264.652344 C 259.917969 264.652344 259.902344 264.652344 259.886719 264.652344 C 259.175781 264.667969 258.5 264.613281 257.890625 264.539062 C 258.996094 261.964844 259.8125 259.1875 261.085938 256.566406 C 261.839844 255.050781 262.722656 253.597656 263.796875 252.285156 C 264.859375 250.988281 265.984375 249.753906 267.164062 248.570312 C 268.121094 247.640625 269.109375 246.742188 270.140625 245.886719 C 271.730469 244.484375 274.03125 242.574219 275.652344 241.722656 C 275.671875 241.710938 275.65625 241.6875 275.640625 241.691406 C 273.917969 242.261719 259.714844 247.398438 256.824219 262.921875 C 256.824219 262.933594 256.816406 262.9375 256.808594 262.929688 C 255.921875 262.152344 248.648438 256.78125 256.941406 240.957031 C 256.945312 240.941406 256.972656 240.953125 256.96875 240.96875 C 256.847656 241.554688 256.394531 244.191406 257.917969 245.3125 C 257.921875 245.316406 257.929688 245.316406 257.933594 245.3125 C 258.199219 244.832031 267.023438 232.804688 280.746094 232.179688 C 280.761719 232.179688 280.769531 232.199219 280.757812 232.210938 C 280.472656 232.433594 278.578125 233.957031 278.601562 234.914062 C 278.601562 234.925781 278.613281 234.933594 278.621094 234.929688 C 279.109375 234.710938 289.210938 230.34375 295.292969 237.550781 " fill-opacity="1" fill-rule="nonzero"/></svg>